<svg width="28" height="29" viewBox="0 0 28 29" fill="none" xmlns="http://www.w3.org/2000/svg">
<path d="M14 6.40723C12.2767 6.40917 10.6246 7.07707 9.40601 8.26442C8.18745 9.45177 7.50199 11.0616 7.5 12.7408C7.5 17.1056 11.9734 21.0664 13.3438 22.1764C13.5281 22.3256 13.7601 22.4072 13.9997 22.4072C14.2392 22.4072 14.4712 22.3256 14.6555 22.1764C16.0239 21.0664 20.5 17.1043 20.5 12.7401C20.4978 11.0611 19.8123 9.45139 18.5938 8.26419C17.3752 7.07698 15.7232 6.40917 14 6.40723V6.40723ZM14 16.0742C13.3234 16.0742 12.662 15.8787 12.0994 15.5124C11.5368 15.1461 11.0983 14.6255 10.8394 14.0164C10.5804 13.4073 10.5127 12.7371 10.6447 12.0905C10.7767 11.4438 11.1025 10.8499 11.581 10.3837C12.0594 9.91748 12.669 9.6 13.3326 9.47138C13.9962 9.34276 14.6841 9.40877 15.3092 9.66107C15.9343 9.91337 16.4686 10.3406 16.8445 10.8888C17.2204 11.437 17.4211 12.0815 17.4211 12.7408C17.4211 13.1785 17.3326 13.612 17.1606 14.0164C16.9887 14.4209 16.7367 14.7883 16.419 15.0979C16.1014 15.4074 15.7242 15.653 15.3092 15.8205C14.8941 15.988 14.4493 16.0742 14 16.0742V16.0742Z" fill="white"/>
</svg>
