<svg width="28" height="29" viewBox="0 0 28 29" fill="none" xmlns="http://www.w3.org/2000/svg">
<path d="M19.7232 16.1398C19.5376 15.9539 19.3173 15.8064 19.0747 15.7058C18.8322 15.6052 18.5723 15.5534 18.3098 15.5534C18.0473 15.5534 17.7873 15.6052 17.5448 15.7058C17.3023 15.8064 17.082 15.9539 16.8964 16.1398L16.5902 16.4489C14.9157 15.0412 13.3672 13.4897 11.9622 11.8122L12.2708 11.5048C12.6445 11.1289 12.8543 10.62 12.8543 10.0896C12.8543 9.55912 12.6445 9.05028 12.2708 8.67439L10.5719 6.97456C10.1912 6.61042 9.68497 6.40723 9.15851 6.40723C8.63205 6.40723 8.12583 6.61042 7.74509 6.97456L6.81453 7.90654C6.36086 8.36397 6.07818 8.96383 6.01398 9.60536C5.94978 10.2469 6.10797 10.891 6.46197 11.4295C9.22758 15.6044 12.7996 19.1827 16.9675 21.9535C17.5071 22.3023 18.1491 22.4573 18.7881 22.393C19.4272 22.3287 20.0255 22.049 20.4851 21.5996L21.4148 20.6684C21.7895 20.2931 22 19.784 22 19.2533C22 18.7225 21.7895 18.2134 21.4148 17.8381L19.7232 16.1398Z" fill="white"/>
</svg>
