<svg xmlns="http://www.w3.org/2000/svg" xmlns:xlink="http://www.w3.org/1999/xlink" width="245" height="35" viewBox="0 0 245 35">
  <defs>
    <clipPath id="clip-stardust-logo-dark">
      <rect width="245" height="35"/>
    </clipPath>
  </defs>
  <g id="stardust-logo-dark" clip-path="url(#clip-stardust-logo-dark)">
    <g id="Group_97" data-name="Group 97" transform="translate(2 1)">
      <g id="Group_96" data-name="Group 96" transform="translate(0 1)">
        <g id="Page-1">
          <g id="Homepage-2">
            <g id="Stardust-Logo-SVG">
              <path id="Path_1" d="M47,25.756l2.53-3.6A9.506,9.506,0,0,0,56.4,25.107c2.563,0,3.762-1.136,3.762-2.4,0-3.763-12.457-1.136-12.457-9.277,0-3.6,3.114-6.585,8.207-6.585a12.033,12.033,0,0,1,8.434,3.017L61.787,13.3a9.294,9.294,0,0,0-6.293-2.368c-1.947,0-3.049.843-3.049,2.141,0,3.406,12.424,1.1,12.424,9.18,0,3.957-2.855,6.946-8.661,6.946A12.5,12.5,0,0,1,47,25.756Z" transform="translate(9.495 -1.99)" fill="#0f193f"/>
              <path id="Path_2" d="M71.678,28.745V11.165H65.352V7.108H82.609v4.057H76.316v17.58Z" transform="translate(13.586 -1.929)" fill="#0f193f"/>
              <path id="Path_3" d="M98.2,28.745l-1.363-3.666H87.561L86.2,28.745H80.975L89.312,7.109h5.772l8.337,21.636Zm-6-17.03-3.373,9.309h6.75Z" transform="translate(17.068 -1.929)" fill="#0f193f"/>
              <path id="Path_4" d="M115.858,28.745l-4.25-7.687h-3.372v7.687h-4.608V7.108h10.12c4.509,0,7.3,2.951,7.3,6.974A6.261,6.261,0,0,1,116.28,20.5l4.9,8.239Zm.454-14.695a2.921,2.921,0,0,0-3.212-2.887h-4.864V17H113.1a2.935,2.935,0,0,0,3.212-2.952Z" transform="translate(22.117 -1.929)" fill="#0f193f"/>
              <path id="Path_5" d="M123.338,28.745V7.108h8.53c6.78,0,11.483,4.314,11.483,10.8,0,6.555-4.7,10.835-11.446,10.835ZM138.65,17.91c0-3.8-2.335-6.75-6.75-6.75h-3.958V24.69h3.927a6.485,6.485,0,0,0,6.78-6.78Z" transform="translate(26.509 -1.929)" fill="#0f193f"/>
              <path id="Path_6" d="M145.034,20.083V7.108h4.671V19.954c0,3.017,1.751,5.093,5.093,5.093s5.061-2.076,5.061-5.093V7.108h4.7V20.083c0,5.352-3.178,9.05-9.763,9.05S145.034,25.436,145.034,20.083Z" transform="translate(31.344 -1.929)" fill="#0f193f"/>
              <path id="Path_7" d="M165.939,25.756l2.53-3.6a9.506,9.506,0,0,0,6.876,2.951c2.563,0,3.762-1.136,3.762-2.4,0-3.763-12.457-1.136-12.457-9.277,0-3.6,3.114-6.585,8.207-6.585a12.033,12.033,0,0,1,8.434,3.017L180.729,13.3a9.294,9.294,0,0,0-6.293-2.368c-1.947,0-3.049.843-3.049,2.141,0,3.406,12.424,1.1,12.424,9.18,0,3.957-2.855,6.946-8.661,6.946A12.5,12.5,0,0,1,165.939,25.756Z" transform="translate(36.003 -1.99)" fill="#0f193f"/>
              <path id="Path_8" d="M190.622,28.745V11.165H184.3V7.108h17.257v4.057H195.26v17.58Z" transform="translate(40.094 -1.929)" fill="#0f193f"/>
              <path id="Path_9" d="M48.478,9.437a.263.263,0,1,0-.254-.263.263.263,0,0,0,.254.263Z" transform="translate(9.769 1.986)" fill="#0f193f"/>
              <path id="Path_10" d="M19.13,11.452,17.551,8.3l-8.12-.1,7.342,5.43Z" transform="translate(1.124 1.828)" fill="#0f193f"/>
              <path id="Path_11" d="M27.426,9.657l5.788,3.024,5.9-4.122L27.574,8.42Z" transform="translate(5.134 1.876)" fill="#0f193f"/>
              <path id="Path_12" d="M22.273,8.052l2.981-2.761L23.323,0,20.656,7.208Z" transform="translate(3.625)" fill="#0f193f"/>
              <path id="Path_13" d="M26.748,16.124l-.655,5.465,7.1,5.25L29.155,15.785Z" transform="translate(4.837 3.518)" fill="#0f193f"/>
              <path id="Path_14" d="M21.915,16.939l-4.953.7-3.31,8.944,9.7-6.772Z" transform="translate(2.064 3.775)" fill="#0f193f"/>
              <circle id="Ellipse_1" cx="4.174" cy="4.174" r="4.174" transform="translate(22.394 10.636)" fill="#0f193f"/>
              <path id="Path_15" d="M9.2,18.6a1.443,1.443,0,0,0,0-2.884,1.443,1.443,0,0,0,0,2.884Z" transform="translate(0.762 3.503)" fill="#0f193f"/>
              <path id="Path_16" d="M1.167,13.171a.38.38,0,1,0-.367-.38.38.38,0,0,0,.367.38Z" transform="translate(-0.8 2.766)" fill="#0f193f"/>
              <path id="Path_18" d="M2.586,7.617a.669.669,0,0,0,0-1.337.669.669,0,0,0,0,1.337Z" transform="translate(-0.545 1.4)" fill="#0f193f"/>
              <path id="Path_19" d="M45.054,16.7A1.055,1.055,0,1,0,44,15.641,1.055,1.055,0,0,0,45.054,16.7Z" transform="translate(8.827 3.251)" fill="#0f193f"/>
              <path id="Path_20" d="M40.179,12a.344.344,0,1,0-.333-.344.344.344,0,0,0,.333.344Z" transform="translate(7.902 2.522)" fill="#0f193f"/>
              <path id="Path_21" d="M33.14,3.478a.38.38,0,1,0-.367-.38A.38.38,0,0,0,33.14,3.478Z" transform="translate(6.325 0.606)" fill="#0f193f"/>
              <path id="Path_22" d="M42.776,5.094a.456.456,0,1,0-.439-.455.456.456,0,0,0,.439.455Z" transform="translate(8.457 0.932)" fill="#0f193f"/>
              <path id="Path_23" d="M37.979,17.155a.456.456,0,1,0-.439-.455A.456.456,0,0,0,37.979,17.155Z" transform="translate(7.388 3.62)" fill="#0f193f"/>
              <path id="Path_24" d="M7.236,12.711a.371.371,0,1,0-.358-.371A.371.371,0,0,0,7.236,12.711Z" transform="translate(0.554 2.668)" fill="#0f193f"/>
            </g>
          </g>
        </g>
      </g>
    </g>
  </g>
</svg>
