<svg width="28" height="29" viewBox="0 0 28 29" fill="none" xmlns="http://www.w3.org/2000/svg">
<path d="M21.8443 12.6578C21.7963 12.6317 21.7419 12.6188 21.6869 12.6202C21.6318 12.6217 21.5783 12.6376 21.5317 12.6662L15.4751 16.3598C15.0345 16.6265 14.5261 16.7678 14.0075 16.7678C13.4888 16.7678 12.9804 16.6265 12.5398 16.3598L6.47334 12.6662C6.4268 12.6376 6.37322 12.6217 6.31821 12.6202C6.2632 12.6188 6.2088 12.6317 6.16072 12.6578C6.11266 12.6839 6.07261 12.722 6.0447 12.7682C6.01679 12.8144 6.00203 12.867 6.00195 12.9206V18.6073C6.00195 19.0841 6.19595 19.5414 6.54137 19.8788C6.88679 20.2163 7.35542 20.4063 7.84441 20.4073H20.152C20.6417 20.4073 21.1112 20.2177 21.4575 19.8801C21.8037 19.5425 21.9982 19.0847 21.9982 18.6073V12.9206C21.9986 12.8675 21.9846 12.8152 21.9576 12.769C21.9306 12.7229 21.8915 12.6845 21.8443 12.6578Z" fill="white"/>
<path d="M20.1518 8.40723H7.84419C7.35456 8.40723 6.88499 8.59687 6.53877 8.93442C6.19255 9.27198 5.99805 9.72981 5.99805 10.2072C5.99803 10.2225 6.00211 10.2375 6.00988 10.2507C6.01766 10.264 6.02885 10.2751 6.04235 10.2828L13.5094 14.8331C13.657 14.9232 13.8276 14.9709 14.0017 14.9709C14.1758 14.9709 14.3464 14.9232 14.494 14.8331L21.9623 10.2828C21.9739 10.2738 21.9832 10.2623 21.9894 10.2491C21.9956 10.236 21.9985 10.2216 21.998 10.2072C21.998 9.72981 21.8035 9.27198 21.4573 8.93442C21.111 8.59687 20.6415 8.40723 20.1518 8.40723Z" fill="white"/>
</svg>
