<svg width="20" height="20" viewBox="0 0 20 20" fill="none" xmlns="http://www.w3.org/2000/svg">
<path d="M18.7323 4.70275C18.106 4.98025 17.4333 5.16775 16.726 5.2525C17.4558 4.81584 18.0017 4.1286 18.262 3.319C17.5764 3.72624 16.826 4.01289 16.0435 4.1665C15.5173 3.60465 14.8203 3.23224 14.0607 3.1071C13.3012 2.98196 12.5216 3.11109 11.8429 3.47444C11.1643 3.83778 10.6246 4.41502 10.3076 5.11652C9.99065 5.81803 9.91415 6.60456 10.09 7.354C8.70077 7.28424 7.34172 6.92316 6.10107 6.29417C4.86042 5.66519 3.76588 4.78237 2.8885 3.703C2.5885 4.2205 2.416 4.8205 2.416 5.4595C2.41567 6.03474 2.55733 6.60118 2.82841 7.10855C3.09949 7.61591 3.49162 8.04852 3.97 8.368C3.41521 8.35034 2.87266 8.20043 2.3875 7.93075V7.97575C2.38745 8.78255 2.66653 9.56453 3.17739 10.189C3.68825 10.8135 4.39943 11.2419 5.19025 11.4017C4.67559 11.541 4.136 11.5615 3.61225 11.4617C3.83537 12.156 4.27 12.763 4.85528 13.1979C5.44056 13.6329 6.14719 13.8739 6.87625 13.8872C5.63863 14.8588 4.11017 15.3858 2.53675 15.3835C2.25804 15.3836 1.97956 15.3673 1.70275 15.3347C3.29986 16.3616 5.15901 16.9066 7.05775 16.9045C13.4853 16.9045 16.999 11.581 16.999 6.964C16.999 6.814 16.9953 6.6625 16.9885 6.5125C17.672 6.01823 18.2619 5.40617 18.7308 4.705L18.7323 4.70275V4.70275Z" fill="white"/>
</svg>
